<!-- <svg width="128" height="128" viewBox="0 0 128 128" fill="none" xmlns="http://www.w3.org/2000/svg"> -->
<svg xmlns="http://www.w3.org/2000/svg"
 width="1024" height="1024" viewBox="100 100 824 824">
<!-- <rect width="1024" height="1024" fill="#334155"/> -->
<circle cx="512" cy="512" r="400" fill="#334155"/>
<g transform="translate(0.000000,1024.000000) scale(0.100000,-0.100000)"
fill="#FFFFFF" stroke="none">
<path d="M5123 8992 c-28 -4 -63 -47 -63 -77 0 -18 -6 -22 -27 -22 -46 0 -76
-57 -57 -107 3 -9 21 -25 40 -37 l34 -21 0 -90 c0 -51 -4 -88 -9 -86 -5 2 -41
34 -80 71 -65 63 -71 72 -71 109 0 52 -51 108 -99 108 -47 0 -81 -38 -81 -90
0 -36 -2 -40 -25 -40 -37 0 -65 -33 -65 -78 0 -52 32 -82 87 -82 38 0 46 -5
93 -57 l51 -58 -150 -5 c-141 -5 -151 -6 -175 -29 -35 -33 -36 -98 -2 -138
l24 -28 166 -3 c91 -2 166 -5 166 -6 0 -1 -27 -30 -61 -64 -58 -59 -63 -62
-110 -62 -63 0 -89 -23 -89 -80 0 -48 38 -95 71 -87 17 5 19 0 19 -47 0 -42 5
-57 23 -74 28 -26 73 -28 107 -5 35 24 40 33 40 81 0 38 5 48 53 93 28 28 68
63 88 79 l35 29 -4 -92 c-3 -51 -9 -94 -14 -96 -5 -2 -21 -13 -36 -26 -49 -42
-28 -127 31 -127 21 0 26 -6 30 -35 9 -52 32 -73 81 -73 23 0 46 4 52 8 17 11
34 48 34 76 0 19 4 24 15 20 8 -4 26 1 40 10 20 13 25 25 25 58 0 34 -6 46
-35 74 -34 32 -35 34 -35 113 0 45 3 81 8 81 4 0 39 -33 79 -72 64 -66 71 -78
77 -123 8 -64 39 -95 97 -95 56 0 79 26 79 90 0 46 2 50 28 56 59 14 85 69 58
122 -18 35 -33 42 -95 42 -44 0 -50 3 -111 65 l-64 65 163 0 163 0 29 29 c21
22 29 39 29 66 0 86 -39 105 -222 105 l-133 1 63 59 c55 53 67 60 103 60 57 0
94 37 85 88 -6 42 -37 72 -72 72 -21 0 -24 5 -24 39 0 57 -27 86 -80 86 -57 0
-100 -46 -100 -106 0 -37 -6 -46 -71 -107 -39 -37 -75 -68 -80 -70 -5 -2 -9
36 -9 84 l0 87 36 31 c26 23 36 39 36 64 1 39 -26 72 -59 72 -18 0 -23 6 -23
24 0 50 -50 87 -107 78z"/>
<path d="M6592 8950 c-62 -38 -63 -43 -60 -530 3 -425 4 -439 24 -467 11 -15
37 -36 58 -47 48 -23 98 -11 141 34 l30 31 3 444 c2 426 2 446 -17 483 -34 67
-115 91 -179 52z"/>
<path d="M2874 8806 c-56 -25 -64 -48 -64 -174 0 -155 23 -192 121 -192 49 0
84 22 98 62 15 43 14 217 -2 247 -28 55 -99 81 -153 57z"/>
<path d="M3353 8730 c-62 -37 -63 -44 -63 -412 0 -313 1 -335 20 -365 54 -89
175 -79 226 19 11 22 14 93 14 355 0 308 -1 330 -20 360 -37 61 -116 81 -177
43z"/>
<path d="M7225 8565 c-22 -8 -41 -15 -42 -15 -1 0 -11 -15 -22 -34 -20 -31
-21 -48 -21 -276 0 -205 3 -247 17 -277 43 -92 170 -97 223 -10 18 29 20 52
20 281 0 302 -3 311 -115 340 -11 3 -38 -1 -60 -9z"/>
<path d="M2387 8380 c-59 -47 -74 -122 -34 -181 30 -46 82 -71 127 -63 109 19
153 139 81 224 -24 30 -34 34 -87 38 -50 3 -63 0 -87 -18z"/>
<path d="M7726 8379 c-83 -65 -71 -190 22 -231 152 -68 270 146 129 232 -44
27 -116 27 -151 -1z"/>
<path d="M1914 7741 c-34 -21 -64 -75 -64 -115 0 -40 34 -99 68 -118 86 -50
202 13 202 110 0 111 -114 179 -206 123z"/>
<path d="M8219 7737 c-43 -29 -59 -60 -59 -120 0 -40 5 -53 33 -84 29 -31 41
-37 88 -40 42 -3 61 0 87 17 59 37 79 126 42 187 -39 64 -128 83 -191 40z"/>
<path d="M2925 7540 c-174 -36 -297 -93 -419 -195 -184 -152 -309 -358 -346
-571 -19 -109 -8 -340 20 -429 64 -201 210 -402 372 -513 62 -42 202 -110 245
-118 24 -5 33 -11 29 -21 -22 -56 -69 -224 -85 -303 -115 -556 -26 -1129 255
-1632 316 -568 819 -969 1459 -1163 217 -66 360 -87 625 -92 249 -6 373 3 540
37 293 60 596 183 866 353 524 330 899 857 1053 1482 45 185 56 289 55 545 0
301 -21 433 -108 712 l-24 76 77 27 c296 104 497 329 583 653 26 98 29 303 6
407 -82 369 -368 657 -737 742 -96 22 -287 22 -386 0 -233 -51 -433 -185 -573
-385 -28 -41 -52 -78 -54 -83 -2 -6 -47 13 -100 41 -282 149 -581 244 -878
280 -107 13 -378 13 -495 0 -303 -34 -547 -108 -841 -256 l-144 -72 -35 58
c-45 74 -158 195 -238 256 -194 147 -484 213 -722 164z m307 -275 c100 -21
220 -87 306 -169 67 -64 153 -177 151 -201 0 -5 -32 -35 -70 -65 -102 -80
-325 -312 -406 -421 -71 -95 -155 -231 -232 -371 -24 -43 -49 -78 -56 -78 -7
0 -60 23 -117 52 -87 43 -116 64 -188 137 -139 139 -193 266 -194 451 -1 121
17 198 69 305 133 269 446 422 737 360z m4103 0 c191 -40 390 -198 467 -371
68 -150 83 -332 39 -474 -56 -186 -199 -344 -376 -417 -105 -43 -104 -44 -154
49 -137 258 -346 516 -605 748 -58 52 -106 99 -106 105 0 18 71 118 119 168
156 164 395 238 616 192z m-1880 -160 c231 -41 509 -142 709 -257 108 -62 260
-172 369 -266 483 -418 757 -974 783 -1587 15 -348 -51 -660 -207 -985 -282
-585 -802 -1007 -1438 -1170 -422 -107 -890 -80 -1287 75 -429 167 -768 431
-1036 806 -80 111 -213 373 -262 515 -125 366 -142 758 -50 1172 90 403 309
782 635 1097 346 334 775 546 1239 610 122 17 423 12 545 -10z"/>
<path d="M4155 5518 c-52 -11 -109 -58 -137 -111 -26 -51 -28 -138 -5 -183 22
-43 87 -99 132 -114 127 -42 270 64 269 200 -1 139 -123 237 -259 208z"/>
<path d="M6005 5506 c-60 -27 -99 -77 -115 -149 -35 -160 130 -303 278 -241
121 50 167 187 102 301 -41 71 -96 103 -176 103 -32 -1 -72 -7 -89 -14z"/>
<path d="M4780 5023 c-29 -11 -67 -38 -107 -78 -51 -52 -64 -72 -82 -129 -77
-249 74 -530 334 -620 l68 -24 -2 -74 c-2 -57 -8 -82 -27 -116 -67 -115 -216
-154 -331 -87 -37 22 -50 39 -81 103 -42 86 -73 114 -127 114 -76 0 -130 -71
-120 -157 10 -80 66 -185 133 -246 104 -95 254 -141 392 -120 103 15 202 65
267 134 l51 54 54 -54 c103 -105 249 -151 413 -132 188 23 359 185 372 354 9
103 -36 166 -118 169 -48 1 -86 -27 -111 -80 -44 -92 -58 -110 -104 -139 -40
-26 -57 -30 -113 -30 -88 1 -156 37 -206 110 -34 49 -36 55 -33 125 l3 73 40
12 c233 69 398 294 382 520 -9 141 -75 252 -178 304 l-62 31 -331 -1 c-275 0
-339 -3 -376 -16z"/>
<path d="M3647 4748 c-49 -29 -82 -94 -72 -145 9 -49 69 -109 117 -118 50 -9
121 23 148 67 42 69 15 160 -60 199 -45 25 -86 24 -133 -3z"/>
<path d="M6510 4749 c-48 -28 -72 -63 -77 -114 -12 -106 89 -180 192 -140 85
32 121 134 73 204 -46 67 -123 88 -188 50z"/>
<path d="M1692 7114 c-47 -24 -66 -58 -66 -115 0 -154 214 -186 254 -38 30
111 -86 205 -188 153z"/>
<path d="M8475 7116 c-47 -21 -67 -51 -73 -105 -8 -88 42 -141 133 -141 132 0
164 194 40 246 -42 17 -61 17 -100 0z"/>
<path d="M1625 6416 c-154 -68 -108 -296 60 -296 123 0 193 118 132 225 -43
75 -119 103 -192 71z"/>
<path d="M8509 6407 c-43 -29 -69 -80 -69 -137 0 -154 199 -207 281 -74 27 45
23 126 -9 171 -45 63 -141 82 -203 40z"/>
<path d="M1899 5714 c-23 -24 -24 -34 -27 -160 -2 -74 -7 -134 -11 -134 -4 0
-36 18 -70 40 -139 90 -183 100 -232 51 -35 -36 -39 -86 -9 -124 12 -14 70
-56 131 -93 l110 -68 -28 -17 c-15 -9 -69 -42 -119 -72 -93 -58 -114 -83 -114
-138 0 -45 47 -89 97 -89 30 0 58 13 135 65 54 36 100 65 103 65 3 0 5 -58 5
-129 0 -145 10 -185 51 -206 35 -19 62 -19 98 -1 43 23 51 54 51 207 l0 140
102 -70 c77 -54 110 -71 135 -71 54 0 91 25 104 69 19 63 1 86 -133 166 -65
39 -118 74 -119 80 -1 5 49 39 111 75 62 36 122 77 133 92 25 33 17 84 -18
122 -41 44 -80 36 -200 -39 -57 -36 -106 -65 -109 -65 -2 0 -6 63 -8 141 -3
140 -3 141 -31 165 -40 34 -105 33 -138 -2z"/>
<path d="M8235 5715 c-24 -23 -25 -29 -25 -160 0 -101 -3 -135 -12 -135 -7 0
-58 27 -112 60 -55 33 -110 60 -122 60 -82 0 -132 -91 -84 -153 17 -21 114
-87 230 -155 11 -7 2 -15 -35 -37 -132 -75 -192 -116 -203 -140 -21 -46 -15
-84 19 -116 43 -40 90 -39 155 3 71 46 156 98 160 98 2 0 4 -67 4 -148 0 -142
1 -149 23 -170 47 -45 127 -35 155 20 7 14 13 77 14 160 l3 137 100 -64 c118
-76 155 -83 205 -37 16 15 32 41 35 57 9 51 -22 84 -143 155 -61 36 -112 70
-112 76 0 7 46 38 102 70 132 74 148 90 148 148 0 37 -5 48 -31 70 -49 41 -80
35 -199 -39 l-105 -65 -5 141 c-5 139 -5 141 -33 165 -39 33 -99 33 -132 -1z"/>
<path d="M1593 3671 c-102 -47 -108 -171 -11 -231 31 -19 51 -20 321 -20 l287
0 0 -410 c0 -445 1 -456 55 -498 59 -47 153 -32 191 31 18 30 19 58 24 452 l5
420 140 5 c149 5 167 10 209 61 50 59 23 153 -54 191 -32 16 -81 18 -580 18
-513 0 -547 -2 -587 -19z"/>
<path d="M7535 3675 c-77 -27 -114 -109 -79 -174 38 -70 56 -76 239 -79 l164
-3 3 -429 3 -428 25 -27 c34 -38 85 -58 124 -49 48 10 94 50 106 92 6 23 10
193 10 440 l0 402 262 0 c243 0 265 1 304 20 44 22 74 67 74 112 0 41 -35 91
-80 115 l-43 23 -536 0 c-436 -1 -543 -4 -576 -15z"/>
<path d="M2804 2992 c-64 -41 -64 -36 -64 -594 0 -561 -1 -548 69 -595 62 -42
150 -19 183 47 16 32 18 79 18 538 0 542 0 542 -53 591 -36 33 -111 39 -153
13z"/>
<path d="M7363 2990 c-70 -43 -68 -21 -71 -560 -4 -537 -1 -572 49 -615 25
-20 41 -25 85 -25 48 0 59 4 92 34 l37 34 3 529 c2 503 1 529 -17 559 -21 35
-75 64 -118 64 -15 0 -42 -9 -60 -20z"/>
<path d="M1727 2956 c-20 -8 -43 -19 -51 -25 -46 -39 -44 -140 3 -185 85 -82
221 -27 221 89 0 54 -25 94 -73 116 -50 22 -51 22 -100 5z"/>
<path d="M8449 2945 c-36 -19 -62 -87 -54 -137 19 -111 160 -140 228 -47 25
34 26 106 2 142 -35 54 -118 73 -176 42z"/>
<path d="M3563 2581 c-50 -23 -76 -68 -76 -129 0 -104 129 -176 209 -116 91
67 92 170 3 236 -37 28 -88 32 -136 9z"/>
<path d="M6594 2586 c-89 -40 -109 -160 -38 -231 87 -87 224 -31 224 92 0 108
-96 180 -186 139z"/>
<path d="M4285 2198 c-127 -17 -213 -57 -336 -158 -109 -89 -124 -93 -354
-100 -164 -4 -206 -8 -232 -23 -63 -34 -82 -117 -40 -178 39 -59 60 -64 278
-67 280 -4 366 20 508 144 35 30 86 67 115 82 46 24 62 27 151 27 87 0 107 -3
155 -26 30 -15 84 -52 120 -83 76 -67 181 -120 264 -135 76 -14 341 -14 426
-1 87 14 149 46 245 126 119 99 167 119 290 119 89 0 105 -3 150 -27 28 -14
79 -52 115 -82 80 -69 185 -123 265 -136 33 -5 150 -10 260 -10 173 0 205 3
241 19 54 25 84 68 84 120 0 35 -7 49 -39 84 l-40 42 -228 5 c-223 5 -229 6
-283 32 -30 15 -86 53 -125 84 -119 95 -224 138 -365 150 -158 13 -332 -46
-475 -162 -114 -93 -134 -99 -315 -99 -149 0 -157 1 -210 27 -30 15 -86 53
-125 84 -145 117 -319 167 -500 142z"/>
</g>
</svg>
