<svg version="1.0" xmlns="http://www.w3.org/2000/svg" width="1000" height="1000" viewBox="0 0 1000 1000">
    <!-- <circle cx="50%" cy="50%" r="500" fill="#334155" /> -->
    <svg version="1.0" xmlns="http://www.w3.org/2000/svg" width="1000" height="1000" viewBox="180 -200 1000 1000">
        <g transform="translate(0.000000,1000.000000) scale(0.13,-0.1300000)" fill="#EEEEEE" stroke="black">
            <path d="M3185 8134 c-148 -26 -312 -102 -429 -198 -63 -52 -167 -183 -210
-265 -133 -254 -150 -511 -51 -787 51 -145 114 -243 228 -357 53 -55 97 -101
97 -103 0 -1 -28 -49 -61 -105 -176 -291 -294 -646 -374 -1129 -9 -52 -18
-106 -20 -119 -2 -13 -7 -43 -10 -65 -3 -23 -9 -57 -12 -76 -3 -19 -8 -114
-10 -211 -5 -204 6 -306 53 -469 24 -86 78 -222 99 -250 6 -8 21 -35 34 -60
64 -121 182 -251 305 -339 62 -44 88 -70 119 -121 159 -261 423 -521 697 -687
36 -22 223 -129 415 -237 193 -109 379 -215 415 -236 407 -237 623 -347 723
-370 52 -12 158 15 262 68 208 104 1372 768 1496 853 238 163 431 366 591 622
24 39 54 71 90 95 87 58 257 237 311 328 147 249 218 539 203 844 -3 74 -8
146 -10 160 -3 14 -7 45 -11 70 -13 98 -26 190 -31 212 -2 13 -13 68 -24 123
-10 55 -21 109 -24 120 -35 152 -95 360 -135 469 -46 123 -148 335 -215 446
l-45 75 47 40 c258 220 395 582 337 889 -62 329 -238 565 -518 696 -178 83
-342 106 -533 72 -116 -20 -227 -62 -332 -124 -73 -43 -212 -175 -258 -247
-21 -31 -38 -57 -39 -59 -1 -1 -33 16 -71 38 -83 49 -192 91 -339 133 l-110
31 -538 3 c-501 4 -545 3 -655 -16 -147 -25 -306 -76 -427 -139 l-94 -48 -38
55 c-135 198 -363 338 -611 376 -122 18 -181 18 -287 -1z m281 -314 c150 -38
283 -119 364 -222 l41 -51 -69 -71 c-38 -39 -82 -90 -99 -113 l-29 -42 -62 63
c-35 35 -87 75 -119 92 -54 27 -66 29 -173 29 -110 0 -117 -1 -160 -29 -57
-36 -87 -71 -100 -117 -18 -63 16 -131 83 -166 24 -12 38 -12 80 -3 127 29
149 18 280 -143 48 -59 96 -83 165 -80 94 5 134 31 225 153 88 118 177 195
322 282 161 96 263 138 432 179 83 20 115 22 568 23 540 2 595 -3 770 -70 253
-98 470 -247 587 -403 97 -130 161 -172 248 -166 79 5 113 29 212 155 31 38
58 61 91 74 45 19 48 19 106 1 54 -16 64 -16 98 -4 38 15 79 63 90 107 9 38
-15 100 -56 141 -54 54 -119 74 -229 69 -112 -4 -179 -34 -268 -120 l-66 -63
-21 30 c-12 17 -54 65 -95 107 l-74 76 31 45 c91 132 327 257 487 257 70 0
184 -28 259 -64 388 -184 461 -693 147 -1027 -41 -43 -79 -79 -84 -79 -6 0
-36 24 -67 53 -72 66 -198 135 -263 143 -97 13 -188 -48 -188 -127 0 -77 44
-136 135 -179 147 -71 292 -233 432 -485 96 -173 185 -435 248 -730 10 -51 23
-125 31 -185 3 -25 7 -56 10 -70 16 -93 34 -400 29 -500 -7 -129 -36 -284 -70
-377 -22 -61 -97 -197 -114 -207 -5 -3 -9 16 -9 42 0 115 -95 186 -179 133
-58 -36 -67 -61 -71 -195 -3 -133 -11 -163 -75 -291 -61 -123 -146 -240 -254
-350 -112 -115 -209 -190 -361 -281 l-107 -64 -6 327 c-4 181 -11 339 -17 353
-21 52 -74 90 -125 90 -37 0 -89 -34 -109 -71 -17 -31 -18 -66 -18 -445 l0
-411 -100 -57 c-56 -31 -105 -56 -110 -56 -5 0 -10 78 -12 174 -3 194 -9 213
-76 247 -44 22 -106 9 -147 -32 l-30 -29 -3 -260 -3 -259 -202 -114 c-111 -63
-241 -134 -289 -158 l-88 -43 -72 36 c-96 49 -267 141 -398 214 l-105 59 -5
250 c-5 268 -6 273 -61 319 -54 46 -155 27 -191 -36 -9 -16 -15 -80 -18 -200
l-5 -177 -100 59 -100 60 -5 417 c-5 387 -6 420 -24 449 -51 85 -175 85 -226
1 -19 -30 -20 -52 -20 -369 l0 -336 -72 39 c-152 83 -282 180 -399 298 -124
124 -196 223 -266 363 -67 135 -73 158 -73 280 0 82 -4 119 -17 145 -32 69
-116 93 -175 51 -38 -27 -72 -100 -64 -139 18 -93 -73 58 -120 198 -19 55 -41
145 -49 200 -16 109 -19 350 -5 458 5 39 12 97 15 130 4 33 9 67 10 76 2 9 6
40 10 70 15 119 62 338 105 485 91 316 236 579 420 764 68 69 115 106 165 132
115 60 161 127 144 206 -15 72 -103 122 -190 108 -71 -11 -220 -98 -283 -165
-17 -17 -35 -31 -41 -31 -16 0 -118 108 -159 170 -83 122 -116 230 -116 378 0
162 29 257 117 380 68 96 221 202 313 217 19 3 51 10 70 14 60 15 134 12 216
-9z" />
            <path d="M4802 6823 c-33 -6 -91 -70 -98 -109 -15 -80 33 -163 104 -184 25 -8
177 -10 454 -8 473 3 450 -1 496 89 28 53 24 114 -9 161 -41 57 -48 58 -506
57 -230 -1 -428 -4 -441 -6z" />
            <path d="M4288 6212 c-186 -68 -244 -291 -114 -439 46 -52 124 -93 179 -93 20
0 37 -1 37 -3 0 -1 -24 -99 -54 -217 -103 -406 -185 -770 -203 -900 -15 -105
-9 -349 10 -440 23 -104 65 -214 114 -300 43 -74 165 -201 235 -245 31 -19 55
-45 70 -73 60 -118 216 -258 345 -312 119 -50 207 -63 368 -57 156 6 225 21
330 72 117 57 243 178 302 291 22 43 39 61 81 85 120 68 250 237 310 404 34
96 53 201 59 335 8 175 -7 265 -127 755 -27 110 -63 261 -79 335 -17 74 -38
161 -46 192 -20 76 -20 78 15 78 53 0 136 38 174 80 99 110 109 244 26 358
-100 138 -315 144 -434 11 -56 -63 -76 -121 -76 -223 0 -57 -6 -97 -20 -134
-26 -67 -25 -88 5 -208 13 -54 38 -157 54 -229 17 -71 42 -179 56 -240 99
-420 124 -556 132 -721 4 -89 2 -147 -7 -185 -44 -193 -121 -312 -239 -366
-134 -63 -315 11 -404 166 -21 35 -20 36 54 46 26 3 78 21 118 40 117 56 196
155 221 280 17 80 6 331 -16 383 -22 53 -72 101 -119 114 -42 12 -737 13 -804
1 -51 -9 -124 -85 -139 -145 -7 -26 -12 -116 -12 -202 0 -174 11 -220 76 -308
62 -86 180 -154 284 -165 25 -3 47 -7 49 -9 9 -8 -36 -78 -75 -120 -59 -61
-134 -96 -217 -102 -61 -4 -73 -2 -132 27 -76 38 -123 88 -171 186 -54 110
-67 191 -61 385 3 94 13 195 21 235 9 39 18 79 20 90 3 11 25 108 50 215 41
177 72 306 151 634 23 97 25 114 14 160 -6 28 -16 59 -21 69 -5 9 -10 59 -12
110 -2 69 -8 105 -25 144 -26 58 -93 127 -147 149 -56 24 -152 26 -206 6z
m686 -1769 c89 -24 469 -24 541 0 27 9 51 14 54 11 9 -9 -71 -82 -118 -107
-98 -53 -269 -60 -383 -17 -60 23 -142 80 -158 110 -13 24 -13 24 64 3z m313
-798 c46 -43 162 -103 215 -111 21 -4 38 -10 38 -14 0 -12 -78 -47 -140 -64
-69 -18 -243 -19 -308 -1 -27 7 -74 24 -103 37 l-54 25 55 17 c79 26 183 82
215 117 16 16 32 29 36 29 4 0 25 -16 46 -35z" />
            <path d="M3320 5882 c-65 -35 -70 -56 -70 -335 0 -270 4 -295 55 -335 54 -43
148 -22 182 41 16 28 18 62 18 292 0 289 -1 295 -68 335 -40 25 -73 25 -117 2z" />
            <path d="M7063 5889 c-17 -5 -43 -23 -57 -40 l-26 -31 0 -277 c0 -262 1 -280
20 -303 46 -59 140 -63 194 -9 l31 31 3 265 c4 305 0 323 -72 356 -46 21 -48
21 -93 8z" />
            <path d="M3766 5569 c-30 -35 -32 -49 -11 -88 37 -73 145 -42 145 42 0 74 -86
104 -134 46z" />
            <path d="M6595 5574 c-29 -31 -31 -53 -10 -93 25 -50 91 -57 124 -15 64 82
-44 183 -114 108z" />
            <path d="M4013 5360 c-54 -22 -69 -114 -27 -161 42 -47 139 -29 164 30 37 90
-45 168 -137 131z" />
            <path d="M6348 5340 c-28 -28 -30 -36 -25 -78 10 -87 94 -122 156 -64 17 15
31 34 32 42 5 46 -4 74 -30 101 -41 41 -91 40 -133 -1z" />
            <path d="M2933 5178 c-38 -10 -80 -58 -88 -101 -4 -18 -5 -162 -3 -322 3 -324
4 -327 75 -360 64 -31 132 -3 169 67 20 39 20 606 0 646 -30 59 -91 86 -153
70z" />
            <path d="M7450 5172 c-67 -36 -70 -51 -70 -385 0 -323 3 -347 54 -381 64 -41
138 -26 176 37 19 30 20 52 20 342 0 293 -1 312 -20 343 -20 32 -71 62 -107
62 -10 0 -34 -8 -53 -18z" />
            <path d="M3628 5120 c-140 -75 -151 -262 -20 -355 38 -26 52 -30 105 -29 140
1 229 109 203 247 -8 45 -70 115 -120 138 -53 24 -121 23 -168 -1z" />
            <path d="M6680 5125 c-80 -37 -123 -102 -123 -190 -1 -91 44 -156 131 -190
170 -68 335 118 251 282 -35 67 -90 103 -165 109 -40 3 -70 0 -94 -11z" />
            <path d="M7061 4680 c-45 -5 -59 -12 -87 -43 l-34 -37 0 -189 c0 -209 -18
-339 -67 -474 -26 -75 -86 -185 -126 -234 -62 -75 -87 -122 -87 -164 0 -74 61
-139 130 -139 115 0 330 300 400 560 21 76 24 112 27 350 4 261 3 266 -19 304
-32 56 -70 74 -137 66z" />
            <path d="M3324 4669 c-11 -6 -29 -25 -40 -42 -18 -30 -19 -53 -18 -307 1 -262
2 -279 27 -372 65 -243 256 -522 373 -544 48 -9 103 21 131 71 41 72 31 105
-65 224 -65 81 -128 210 -159 329 -22 84 -27 128 -33 327 -5 127 -9 233 -9
237 -1 5 -17 26 -37 48 -34 38 -39 40 -93 39 -31 0 -65 -5 -77 -10z" />
            <path d="M6612 4514 c-40 -27 -22 -74 28 -74 48 0 66 42 32 73 -23 21 -32 21
-60 1z" />
            <path d="M3785 4450 c-37 -41 24 -97 63 -58 18 18 14 56 -7 68 -27 14 -35 13
-56 -10z" />
            <path d="M6618 4182 c-77 -70 10 -181 103 -131 54 28 53 116 -2 144 -41 22
-65 19 -101 -13z" />
            <path d="M3757 4189 c-23 -13 -47 -62 -47 -94 0 -40 50 -85 95 -85 82 0 126
103 70 164 -26 28 -83 35 -118 15z" />
            <path d="M3906 3901 c-8 -13 4 -41 18 -41 22 0 37 17 30 33 -7 18 -39 23 -48
8z" />
            <path d="M6562 3888 c3 -24 25 -33 46 -20 20 13 3 42 -25 42 -20 0 -24 -4 -21
-22z" />
            <path d="M4340 3410 c-9 -16 -8 -25 1 -36 27 -33 75 -2 52 35 -15 24 -40 25
-53 1z" />
            <path d="M6102 3393 c2 -20 8 -28 23 -28 31 0 28 49 -3 53 -20 3 -23 0 -20
-25z" />
            <path d="M4954 2991 c-18 -11 -38 -36 -47 -60 -23 -56 -23 -206 -1 -261 39
-97 172 -107 221 -17 25 44 22 253 -3 296 -35 59 -111 78 -170 42z" />
            <path d="M5386 2989 c-47 -37 -56 -68 -56 -189 0 -152 21 -192 106 -205 48 -8
91 10 123 51 19 24 21 40 21 146 0 129 -9 160 -56 197 -18 14 -41 21 -69 21
-28 0 -51 -7 -69 -21z" />
        </g>
    </svg>
</svg>